<svg width="20" height="16" viewBox="0 0 20 16" fill="none" xmlns="http://www.w3.org/2000/svg">
<path d="M13 9C13 10.6569 11.6569 12 10 12C8.34315 12 7 10.6569 7 9C7 7.34315 8.34315 6 10 6C11.6569 6 13 7.34315 13 9Z" stroke="#5F5F5F"/>
<path d="M19 13V5C19 3.89543 18.1046 3 17 3H14.4C14.1791 3 14 2.82091 14 2.6C14 1.71634 13.2837 1 12.4 1H7.6C6.71634 1 6 1.71634 6 2.6C6 2.82091 5.82091 3 5.6 3H3C1.89543 3 1 3.89543 1 5V13C1 14.1046 1.89543 15 3 15H17C18.1046 15 19 14.1046 19 13Z" stroke="#5F5F5F"/>
</svg>
