<svg width="17" height="16" viewBox="0 0 17 16" fill="none" xmlns="http://www.w3.org/2000/svg">
<path d="M1 8.32843V13C1 14.1046 1.89543 15 3 15H6.33333C6.60948 15 6.83333 14.7761 6.83333 14.5V10.7632C6.83333 10.487 7.05719 10.2632 7.33333 10.2632H9.66667C9.94281 10.2632 10.1667 10.487 10.1667 10.7632V14.5C10.1667 14.7761 10.3905 15 10.6667 15H14C15.1046 15 16 14.1046 16 13V8.32843C16 7.79799 15.7893 7.28929 15.4142 6.91421L9.91421 1.41421C9.13317 0.633165 7.86683 0.633165 7.08579 1.41421L1.58579 6.91421C1.21071 7.28929 1 7.79799 1 8.32843Z" stroke="black" stroke-width="1.5"/>
</svg>
