<svg width="17" height="17" viewBox="0 0 17 17" fill="none" xmlns="http://www.w3.org/2000/svg">
<path d="M12.5303 11.4696L12 10.9393L10.9393 12L11.4696 12.5303L12 12L12.5303 11.4696ZM15.4697 16.5303C15.7626 16.8232 16.2374 16.8232 16.5303 16.5303C16.8232 16.2374 16.8232 15.7626 16.5303 15.4697L16 16L15.4697 16.5303ZM13.1429 7.07145H12.3929C12.3929 10.0104 10.0104 12.3929 7.07145 12.3929V13.1429V13.8929C10.8388 13.8929 13.8929 10.8388 13.8929 7.07145H13.1429ZM7.07145 13.1429V12.3929C4.13249 12.3929 1.75 10.0104 1.75 7.07145H1H0.25C0.25 10.8388 3.30407 13.8929 7.07145 13.8929V13.1429ZM1 7.07145H1.75C1.75 4.13249 4.13249 1.75 7.07145 1.75V1V0.25C3.30407 0.25 0.25 3.30407 0.25 7.07145H1ZM7.07145 1V1.75C10.0104 1.75 12.3929 4.13249 12.3929 7.07145H13.1429H13.8929C13.8929 3.30407 10.8388 0.25 7.07145 0.25V1ZM12 12L11.4696 12.5303L15.4697 16.5303L16 16L16.5303 15.4697L12.5303 11.4696L12 12Z" fill="black"/>
</svg>
